<svg width="22" height="22" viewBox="0 0 22 22" fill="none" xmlns="http://www.w3.org/2000/svg">
<path d="M17.4633 12.0933H8.71667C9.34138 11.8094 10.0182 11.5958 10.717 11.3779C11.9814 10.984 13.2826 10.5757 14.3411 9.686H17.4633C17.7165 9.686 17.9216 9.48083 17.9216 9.22767C17.9216 8.97451 17.7165 8.76934 17.4633 8.76934H15.1646C15.7073 7.91932 15.8413 6.87679 15.5129 5.81273C15.0273 4.23936 13.6387 2.92416 12.1359 2.61442C10.7407 2.32653 9.18501 2.64092 7.97651 3.45482C6.91948 4.16667 6.21891 5.2015 6.00353 6.36917C5.9577 6.61803 6.12223 6.85723 6.37127 6.90306C6.61978 6.94746 6.85915 6.78454 6.90516 6.53532C7.07524 5.61221 7.6376 4.78828 8.48856 4.21537C9.49689 3.5361 10.7901 3.27184 11.9511 3.51247C13.141 3.75739 14.2457 4.81478 14.637 6.08307C14.8139 6.65599 14.9768 7.75492 14.0827 8.67874C14.0513 8.71124 14.0164 8.73809 13.9842 8.76934H4.53597C4.28281 8.76934 4.07764 8.97451 4.07764 9.22767C4.07764 9.48083 4.28281 9.686 4.53597 9.686H12.6532C11.9726 10.0218 11.222 10.2603 10.4444 10.5028C9.22975 10.8815 7.97969 11.2736 6.93998 12.0933H4.53597C4.28281 12.0933 4.07764 12.2985 4.07764 12.5517C4.07764 12.8048 4.28281 13.01 4.53597 13.01H6.07403C5.34472 14.1398 5.32463 15.7014 6.08481 17.0505C7.06862 18.7961 8.97912 19.4875 10.8125 19.4875C11.4498 19.4875 12.0779 19.4041 12.6544 19.2523C15.0692 18.616 16.5667 16.9248 16.5627 14.839C16.5624 14.5859 16.3572 14.3814 16.1044 14.3814C16.1041 14.3814 16.1037 14.3814 16.1037 14.3814C15.8505 14.3818 15.6457 14.5877 15.6461 14.8405C15.65 16.8124 13.9825 17.9543 12.4209 18.3657C10.4551 18.8831 7.92191 18.4434 6.88332 16.6007C6.3147 15.5913 6.16592 14.0624 7.1832 13.0913C7.21366 13.0622 7.24703 13.038 7.27811 13.01H17.4633C17.7165 13.01 17.9216 12.8048 17.9216 12.5517C17.9216 12.2985 17.7165 12.0933 17.4633 12.0933Z" fill="#1D1C1A"/>
</svg>
