<svg width="15" height="19" viewBox="0 0 15 19" fill="none" xmlns="http://www.w3.org/2000/svg">
<path d="M7.5 0.6875C11.5387 0.6875 14.8125 3.96125 14.8125 8C14.8125 11.09 12.6413 14.4575 8.355 18.1385C8.11667 18.3432 7.81279 18.4557 7.4986 18.4554C7.1844 18.4551 6.88072 18.3422 6.64275 18.137L6.35925 17.891C2.26275 14.306 0.1875 11.021 0.1875 8C0.1875 3.96125 3.46125 0.6875 7.5 0.6875ZM7.5 1.8125C5.85897 1.8125 4.28516 2.4644 3.12478 3.62478C1.9644 4.78516 1.3125 6.35897 1.3125 8C1.3125 10.6265 3.2235 13.6528 7.098 17.0428L7.37775 17.285C7.41176 17.3143 7.45514 17.3303 7.5 17.3303C7.54486 17.3303 7.58824 17.3143 7.62225 17.285C11.6842 13.796 13.6875 10.6888 13.6875 8C13.6875 7.18745 13.5275 6.38285 13.2165 5.63215C12.9056 4.88144 12.4498 4.19934 11.8752 3.62478C11.3007 3.05021 10.6186 2.59445 9.86785 2.2835C9.11715 1.97254 8.31255 1.8125 7.5 1.8125ZM7.5 5.1875C8.24592 5.1875 8.96129 5.48382 9.48874 6.01126C10.0162 6.53871 10.3125 7.25408 10.3125 8C10.3125 8.74592 10.0162 9.46129 9.48874 9.98874C8.96129 10.5162 8.24592 10.8125 7.5 10.8125C6.75408 10.8125 6.03871 10.5162 5.51126 9.98874C4.98382 9.46129 4.6875 8.74592 4.6875 8C4.6875 7.25408 4.98382 6.53871 5.51126 6.01126C6.03871 5.48382 6.75408 5.1875 7.5 5.1875ZM7.5 6.3125C7.05245 6.3125 6.62323 6.49029 6.30676 6.80676C5.99029 7.12323 5.8125 7.55245 5.8125 8C5.8125 8.44755 5.99029 8.87678 6.30676 9.19324C6.62323 9.50971 7.05245 9.6875 7.5 9.6875C7.94755 9.6875 8.37677 9.50971 8.69324 9.19324C9.00971 8.87678 9.1875 8.44755 9.1875 8C9.1875 7.55245 9.00971 7.12323 8.69324 6.80676C8.37677 6.49029 7.94755 6.3125 7.5 6.3125Z" fill="black"/>
</svg>
